<svg width="24" height="18" viewBox="0 0 24 18" fill="none" xmlns="http://www.w3.org/2000/svg">
<path d="M8.143 0C7.214 0 6.409 0.38 5.895 0.958C5.38 1.536 5.143 2.274 5.143 3C5.143 3.726 5.38 4.464 5.895 5.042C6.409 5.621 7.215 6 8.143 6C9.071 6 9.877 5.62 10.391 5.042C10.905 4.464 11.143 3.726 11.143 3C11.143 2.274 10.905 1.536 10.391 0.958C9.877 0.379 9.071 0 8.143 0ZM15.857 0C14.929 0 14.123 0.38 13.609 0.958C13.095 1.536 12.857 2.274 12.857 3C12.857 3.726 13.095 4.464 13.609 5.042C14.123 5.621 14.929 6 15.857 6C16.786 6 17.591 5.62 18.106 5.042C18.62 4.464 18.857 3.726 18.857 3C18.857 2.274 18.62 1.536 18.106 0.958C17.591 0.379 16.786 0 15.857 0ZM8.143 1.714C8.643 1.714 8.909 1.871 9.109 2.096C9.309 2.321 9.429 2.655 9.429 3C9.429 3.345 9.309 3.679 9.109 3.904C8.909 4.129 8.643 4.286 8.143 4.286C7.643 4.286 7.377 4.129 7.177 3.904C6.977 3.679 6.857 3.345 6.857 3C6.857 2.655 6.977 2.321 7.177 2.096C7.377 1.871 7.643 1.714 8.143 1.714ZM15.857 1.714C16.357 1.714 16.623 1.871 16.823 2.096C17.023 2.321 17.143 2.655 17.143 3C17.143 3.345 17.023 3.679 16.823 3.904C16.623 4.129 16.357 4.286 15.857 4.286C15.357 4.286 15.091 4.129 14.891 3.904C14.691 3.679 14.571 3.345 14.571 3C14.571 2.655 14.691 2.321 14.891 2.096C15.091 1.871 15.357 1.714 15.857 1.714ZM4.286 6C3.5 6 2.802 6.326 2.359 6.824C1.93682 7.3074 1.70724 7.92923 1.714 8.571C1.714 9.084 1.949 9.573 2.248 10.019C0.932 10.753 0 12.109 0 13.714H1.714C1.71241 13.3758 1.77786 13.0407 1.90656 12.728C2.03527 12.4153 2.22467 12.1312 2.46384 11.8921C2.703 11.6531 2.98717 11.4638 3.29994 11.3352C3.6127 11.2066 3.94784 11.1413 4.286 11.143C4.93322 11.1412 5.5569 11.3856 6.0306 11.8266C6.5043 12.2677 6.79259 12.8723 6.837 13.518C5.74693 14.7568 5.14481 16.3499 5.143 18H6.857C6.857 15.15 9.15 12.857 12 12.857C14.85 12.857 17.143 15.15 17.143 18H18.857C18.857 16.284 18.212 14.72 17.163 13.518C17.2074 12.8723 17.4957 12.2677 17.9694 11.8266C18.4431 11.3856 19.0668 11.1412 19.714 11.143C20.0522 11.1413 20.3873 11.2066 20.7001 11.3352C21.0128 11.4638 21.297 11.6531 21.5362 11.8921C21.7753 12.1312 21.9647 12.4153 22.0934 12.728C22.2221 13.0407 22.2876 13.3758 22.286 13.714H24C24 12.139 23.129 10.771 21.854 10.026C22.144 9.584 22.286 9.076 22.286 8.571C22.2931 7.92916 22.0635 7.30721 21.641 6.824C21.198 6.326 20.5 6 19.714 6C18.928 6 18.23 6.326 17.787 6.824C17.3652 7.30755 17.136 7.92936 17.143 8.571C17.143 9.076 17.285 9.584 17.575 10.026C16.7098 10.5292 16.0473 11.3186 15.702 12.258C15.3605 12.0319 14.9993 11.8367 14.623 11.675C15.1457 11.0434 15.4309 10.2488 15.429 9.429C15.429 8.595 15.155 7.75 14.569 7.092C13.985 6.432 13.072 6 12 6C10.928 6 10.016 6.433 9.43 7.092C8.845 7.75 8.571 8.595 8.571 9.429C8.571 10.228 8.84 11.029 9.377 11.675C8.99859 11.8376 8.63548 12.0337 8.292 12.261C7.91723 11.3072 7.22069 10.5144 6.323 10.02C6.623 9.573 6.857 9.084 6.857 8.571C6.857 7.952 6.655 7.321 6.213 6.824C5.77 6.326 5.071 6 4.286 6ZM4.286 7.714C4.643 7.714 4.802 7.817 4.93 7.962C5.059 8.107 5.143 8.333 5.143 8.572C5.143 8.811 5.059 9.036 4.93 9.181C4.802 9.326 4.643 9.429 4.286 9.429C3.929 9.429 3.77 9.326 3.641 9.181C3.512 9.036 3.429 8.81 3.429 8.571C3.429 8.332 3.513 8.107 3.641 7.962C3.769 7.817 3.929 7.714 4.286 7.714ZM12 7.714C12.643 7.714 13.016 7.924 13.287 8.23C13.558 8.536 13.714 8.976 13.714 9.429C13.714 9.882 13.559 10.322 13.287 10.627C13.015 10.932 12.643 11.143 12 11.143C11.357 11.143 10.984 10.933 10.713 10.627C10.442 10.321 10.286 9.881 10.286 9.429C10.286 8.977 10.441 8.535 10.713 8.229C10.985 7.923 11.357 7.714 12 7.714ZM19.714 7.714C20.071 7.714 20.23 7.817 20.359 7.962C20.488 8.107 20.571 8.333 20.571 8.572C20.571 8.811 20.487 9.036 20.359 9.181C20.231 9.326 20.071 9.429 19.714 9.429C19.357 9.429 19.198 9.326 19.07 9.181C18.941 9.036 18.857 8.81 18.857 8.571C18.857 8.332 18.941 8.107 19.07 7.962C19.198 7.817 19.357 7.714 19.714 7.714Z" fill="#3A8241"/>
</svg>
