<svg width="24" height="22" viewBox="0 0 24 22" fill="none" xmlns="http://www.w3.org/2000/svg">
<path fill-rule="evenodd" clip-rule="evenodd" d="M22 2C22 2.26522 21.8946 2.51957 21.7071 2.70711C21.5196 2.89464 21.2652 3 21 3C20.7348 3 20.4804 2.89464 20.2929 2.70711C20.1054 2.51957 20 2.26522 20 2C20 1.73478 20.1054 1.48043 20.2929 1.29289C20.4804 1.10536 20.7348 1 21 1C21.2652 1 21.5196 1.10536 21.7071 1.29289C21.8946 1.48043 22 1.73478 22 2ZM23 2C23 2.53043 22.7893 3.03914 22.4142 3.41421C22.0391 3.78929 21.5304 4 21 4C20.4696 4 19.9609 3.78929 19.5858 3.41421C19.2107 3.03914 19 2.53043 19 2C19 1.46957 19.2107 0.96086 19.5858 0.585787C19.9609 0.210714 20.4696 0 21 0C21.5304 0 22.0391 0.210714 22.4142 0.585787C22.7893 0.96086 23 1.46957 23 2ZM3 6.5C3.39782 6.5 3.77935 6.34196 4.06066 6.06066C4.34196 5.77936 4.5 5.39782 4.5 5C4.5 4.60218 4.34196 4.22064 4.06066 3.93934C3.77935 3.65804 3.39782 3.5 3 3.5C2.60218 3.5 2.22064 3.65804 1.93934 3.93934C1.65804 4.22064 1.5 4.60218 1.5 5C1.5 5.39782 1.65804 5.77936 1.93934 6.06066C2.22064 6.34196 2.60218 6.5 3 6.5ZM3 8C3.79565 8 4.55871 7.68393 5.12132 7.12132C5.68393 6.55871 6 5.79565 6 5C6 4.20435 5.68393 3.44129 5.12132 2.87868C4.55871 2.31607 3.79565 2 3 2C2.20435 2 1.44129 2.31607 0.878679 2.87868C0.31607 3.44129 0 4.20435 0 5C0 5.79565 0.31607 6.55871 0.878679 7.12132C1.44129 7.68393 2.20435 8 3 8ZM14.5 5C12.319 5 10.94 5.77 10.103 6.707C9.807 7.037 9.593 7.374 9.436 7.677C8.527 7.411 7.226 7.314 5.946 8.167C4.391 9.204 3.759 10.634 3.568 11.772C2.85697 12.014 2.20171 12.3962 1.641 12.896C0.723 13.722 0 14.97 0 16.691C0 18.699 0.827 20.094 2.08 20.944C3.271 21.753 4.746 22 6 22H18.5C19.64 22 20.982 21.576 22.054 20.736C23.153 19.875 24 18.546 24 16.779C24 15.115 23.402 13.789 22.433 12.882C21.8168 12.3103 21.0635 11.9074 20.246 11.712C20.4 10.452 20.095 9.065 19.433 7.906C18.516 6.303 16.838 5 14.5 5ZM10.959 9.284L10.977 9.22C11.042 8.986 11.177 8.507 11.594 8.04C12.022 7.56 12.842 7 14.5 7C16 7 17.072 7.807 17.696 8.899C18.346 10.035 18.432 11.345 18.08 12.17L17.486 13.562H19C19.774 13.562 20.522 13.832 21.067 14.342C21.597 14.839 22 15.62 22 16.779C22 17.837 21.514 18.619 20.82 19.161C20.101 19.725 19.193 20 18.5 20H6C4.961 20 3.937 19.787 3.202 19.289C2.528 18.83 2 18.072 2 16.69C2 15.59 2.44 14.867 2.979 14.382C3.546 13.871 4.238 13.617 4.661 13.549L5.5 13.412V12.562C5.5 11.874 5.794 10.672 7.055 9.832C8.045 9.171 9.142 9.642 9.469 9.846L10.585 10.546L10.959 9.284ZM6.72 14.64C6.72 12.91 7.647 11.844 9.15 11.844C10.378 11.844 11.317 12.682 11.396 13.84H10.342C10.238 13.229 9.768 12.826 9.15 12.826C8.336 12.826 7.83 13.52 7.83 14.641C7.83 15.763 8.336 16.459 9.154 16.459C9.774 16.459 10.241 16.084 10.345 15.498H11.4C11.31 16.648 10.4 17.44 9.15 17.44C7.65 17.44 6.72 16.374 6.72 14.64ZM12 14.64C12 12.913 12.938 11.844 14.404 11.844C15.877 11.844 16.8 12.917 16.8 14.64C16.8 16.366 15.88 17.44 14.404 17.44C12.924 17.44 12 16.366 12 14.64ZM15.735 14.64C15.735 13.526 15.217 12.822 14.404 12.822C13.594 12.822 13.069 13.526 13.069 14.64C13.069 15.75 13.584 16.462 14.404 16.462C15.217 16.462 15.735 15.751 15.735 14.64ZM17.28 16.296C17.28 15.638 17.756 15.205 18.48 15.205C19.181 15.205 19.631 15.583 19.631 16.169C19.631 16.572 19.426 16.899 18.863 17.339L18.496 17.669V17.731H19.68V18.457H17.341V17.813L18.233 16.998C18.69 16.592 18.799 16.449 18.799 16.255C18.799 16.057 18.651 15.921 18.442 15.921C18.22 15.921 18.069 16.071 18.069 16.291V16.312H17.28V16.296Z" fill="#3A8241"/>
</svg>
