<svg width="198" height="21" viewBox="0 0 198 21" fill="none" xmlns="http://www.w3.org/2000/svg">
<path d="M14.1458 9.5C13.5521 6.21875 10.9271 4.28125 7.70834 4.28125C3.61459 4.28125 0.645836 7.4375 0.645836 12.5C0.645836 17.5625 3.61459 20.7187 7.70834 20.7187C10.9271 20.7187 13.5521 18.7812 14.1458 15.5H12.2083C11.7396 17.7188 9.83334 18.9062 7.70834 18.9062C4.80209 18.9062 2.52084 16.6562 2.52084 12.5C2.52084 8.34375 4.80209 6.09375 7.70834 6.09375C9.83334 6.09375 11.7396 7.28125 12.2083 9.5H14.1458ZM16.4017 6.21875H21.4329V20.5H23.3704V6.21875H28.4017V4.5H16.4017V6.21875ZM31.3919 20.5H33.3294V14.6562H36.8294C40.556 14.6562 42.2357 12.3906 42.2357 9.5625C42.2357 6.73437 40.556 4.5 36.7982 4.5H31.3919V20.5ZM33.3294 12.9375V6.21875H36.7357C39.3372 6.21875 40.3294 7.64062 40.3294 9.5625C40.3294 11.4844 39.3372 12.9375 36.7669 12.9375H33.3294ZM58.8568 12.5C58.8568 7.4375 55.888 4.28125 51.7943 4.28125C47.7005 4.28125 44.7318 7.4375 44.7318 12.5C44.7318 17.5625 47.7005 20.7187 51.7943 20.7187C55.888 20.7187 58.8568 17.5625 58.8568 12.5ZM56.9818 12.5C56.9818 16.6562 54.7005 18.9062 51.7943 18.9062C48.888 18.9062 46.6068 16.6562 46.6068 12.5C46.6068 8.34375 48.888 6.09375 51.7943 6.09375C54.7005 6.09375 56.9818 8.34375 56.9818 12.5ZM62.1146 4.5V20.5H63.9896L72.7083 7.9375H72.8646V20.5H74.8021V4.5H72.9271L64.1771 17.0937H64.0208V4.5H62.1146ZM69.9896 0.499999C69.9896 1.3125 69.5521 2.03125 68.4583 2.03125C67.3646 2.03125 66.9583 1.3125 66.9583 0.499999H65.2396C65.2396 2.1875 66.4896 3.375 68.4583 3.375C70.4583 3.375 71.7083 2.1875 71.7083 0.499999H69.9896ZM88.0853 20.5H90.3978L83.7103 11.5312L90.179 4.5H87.8665L81.4603 11.4375H80.6165V4.5H78.679V20.5H80.6165V13.1562H82.5853L88.0853 20.5ZM105.65 12.5C105.65 7.4375 102.681 4.28125 98.5872 4.28125C94.4935 4.28125 91.5247 7.4375 91.5247 12.5C91.5247 17.5625 94.4935 20.7187 98.5872 20.7187C102.681 20.7187 105.65 17.5625 105.65 12.5ZM103.775 12.5C103.775 16.6562 101.493 18.9062 98.5872 18.9062C95.681 18.9062 93.3997 16.6562 93.3997 12.5C93.3997 8.34375 95.681 6.09375 98.5872 6.09375C101.493 6.09375 103.775 8.34375 103.775 12.5ZM108.908 20.5H110.845V13.3437H119.376V20.5H121.314V4.5H119.376V11.625H110.845V4.5H108.908V20.5ZM124.318 6.21875H129.349V20.5H131.286V6.21875H136.318V4.5H124.318V6.21875ZM139.308 20.5H141.245V14.6562H144.745C148.472 14.6562 150.152 12.3906 150.152 9.5625C150.152 6.73437 148.472 4.5 144.714 4.5H139.308V20.5ZM141.245 12.9375V6.21875H144.652C147.253 6.21875 148.245 7.64062 148.245 9.5625C148.245 11.4844 147.253 12.9375 144.683 12.9375H141.245ZM166.773 12.5C166.773 7.4375 163.804 4.28125 159.71 4.28125C155.617 4.28125 152.648 7.4375 152.648 12.5C152.648 17.5625 155.617 20.7187 159.71 20.7187C163.804 20.7187 166.773 17.5625 166.773 12.5ZM164.898 12.5C164.898 16.6562 162.617 18.9062 159.71 18.9062C156.804 18.9062 154.523 16.6562 154.523 12.5C154.523 8.34375 156.804 6.09375 159.71 6.09375C162.617 6.09375 164.898 8.34375 164.898 12.5ZM168.656 20.5H169.249C172.781 20.5 173.492 17.625 173.687 12.5938L173.937 6.21875H179.906V20.5H181.843V4.5H172.093L171.812 12.2187C171.64 16.9375 171.124 18.7187 169.124 18.7187H168.656V20.5ZM187.652 11.2188V4.5H185.714V20.5H191.714C195.152 20.5 197.027 18.5625 197.027 15.7812C197.027 13 195.152 11.2188 191.714 11.2188H187.652ZM187.652 12.9375H191.714C193.902 12.9375 195.12 14.2187 195.12 15.75C195.12 17.3125 193.902 18.8125 191.714 18.8125H187.652V12.9375Z" fill="#212B31"/>
</svg>
